# xmcd
#
# Track frame offsets: 
#        150
#        22622
#        42935
#        71860
#        102307
#        140250
#        183725
#        205517
#        224482
#
# Disc length: 3316 seconds
#
# Revision: 1
# Processed by: cddbd v1.4PL0 Copyright (c) Steve Scherf et al.
# Submitted via: ExactAudioCopy v0.90b4
#
DISCID=7f0cf209
DTITLE=Various Artist - Great Canadian Jazz
DYEAR=1996
DGENRE=Jazz
TTITLE0=Howard "The Reverend" Moore - Jazzman Theme
TTITLE1=Kalabash - Minor Delay
TTITLE2=Time Warp - Bad Back Blues
TTITLE3=Joe Sealy - Distant Shores
TTITLE4=The Hugh Fraser Quintet - Thank You Very Much
TTITLE5=Kevin Dean - Urban Lullabye
TTITLE6=Bill Grove and Noise R' Us - Song #5
TTITLE7=Graeme Kirkland - Don't Tell Me
TTITLE8=Roger Baird and Museart - Wildflower
EXTD=From the Jazzman series done by Bravo!
EXTT0=
EXTT1=
EXTT2=
EXTT3=
EXTT4=
EXTT5=
EXTT6=
EXTT7=
EXTT8=
PLAYORDER=
